<mxfile host="app.diagrams.net" agent="Mozilla/5.0 (Windows NT 10.0; Win64; x64) AppleWebKit/537.36 (KHTML, like Gecko) Chrome/134.0.0.0 Safari/537.36" version="26.1.3">
  <diagram name="Trang-1" id="EKlKA1vUI2ZHoh4sTRay">
    <mxGraphModel>
      <root>
        <mxCell id="0" />
        <mxCell id="1" parent="0" />
        <mxCell id="2" value="Notification" style="whiteSpace=wrap;strokeWidth=2;" vertex="1" parent="1">
          <mxGeometry x="142" y="614" width="378" height="104" as="geometry" />
        </mxCell>
        <mxCell id="3" value="Website" style="whiteSpace=wrap;strokeWidth=2;" vertex="1" parent="1">
          <mxGeometry x="8" y="311" width="574" height="230" as="geometry" />
        </mxCell>
        <mxCell id="4" value="User" style="whiteSpace=wrap;strokeWidth=2;" vertex="1" parent="1">
          <mxGeometry x="53" y="8" width="428" height="230" as="geometry" />
        </mxCell>
        <mxCell id="5" value="User" style="whiteSpace=wrap;strokeWidth=2;" vertex="1" parent="1">
          <mxGeometry x="255" y="33" width="92" height="54" as="geometry" />
        </mxCell>
        <mxCell id="6" value="Login Process" style="whiteSpace=wrap;strokeWidth=2;" vertex="1" parent="1">
          <mxGeometry x="223" y="159" width="155" height="54" as="geometry" />
        </mxCell>
        <mxCell id="7" value="Authentication Server" style="whiteSpace=wrap;strokeWidth=2;" vertex="1" parent="1">
          <mxGeometry x="103" y="336" width="216" height="54" as="geometry" />
        </mxCell>
        <mxCell id="8" value="Database" style="whiteSpace=wrap;strokeWidth=2;" vertex="1" parent="1">
          <mxGeometry x="149" y="462" width="126" height="54" as="geometry" />
        </mxCell>
        <mxCell id="9" value="User Dashboard" style="whiteSpace=wrap;strokeWidth=2;" vertex="1" parent="1">
          <mxGeometry x="376" y="462" width="171" height="54" as="geometry" />
        </mxCell>
        <mxCell id="10" value="Audit Log" style="whiteSpace=wrap;strokeWidth=2;" vertex="1" parent="1">
          <mxGeometry x="262" y="639" width="128" height="54" as="geometry" />
        </mxCell>
        <mxCell id="11" value="Enters Credentials" style="curved=1;startArrow=none;endArrow=block;exitX=0.5;exitY=1;entryX=0.5;entryY=0.01;" edge="1" parent="1" source="5" target="6">
          <mxGeometry relative="1" as="geometry">
            <Array as="points" />
          </mxGeometry>
        </mxCell>
        <mxCell id="12" value="Requests Authentication" style="curved=1;startArrow=none;endArrow=block;exitX=0;exitY=0.94;entryX=0.31;entryY=0;" edge="1" parent="1" source="6" target="7">
          <mxGeometry relative="1" as="geometry">
            <Array as="points">
              <mxPoint x="129" y="238" />
              <mxPoint x="129" y="311" />
            </Array>
          </mxGeometry>
        </mxCell>
        <mxCell id="13" value="Verifies Credentials" style="curved=1;startArrow=none;endArrow=block;exitX=0.33;exitY=1;entryX=0.21;entryY=0;" edge="1" parent="1" source="7" target="8">
          <mxGeometry relative="1" as="geometry">
            <Array as="points">
              <mxPoint x="126" y="426" />
            </Array>
          </mxGeometry>
        </mxCell>
        <mxCell id="14" value="Returns Authorization" style="curved=1;startArrow=none;endArrow=block;exitX=0.79;exitY=0;entryX=0.67;entryY=1;" edge="1" parent="1" source="8" target="7">
          <mxGeometry relative="1" as="geometry">
            <Array as="points">
              <mxPoint x="297" y="426" />
            </Array>
          </mxGeometry>
        </mxCell>
        <mxCell id="15" value="Sends Approval" style="curved=1;startArrow=none;endArrow=block;exitX=0.72;exitY=0;entryX=0.5;entryY=1.01;" edge="1" parent="1" source="7" target="6">
          <mxGeometry relative="1" as="geometry">
            <Array as="points">
              <mxPoint x="301" y="311" />
            </Array>
          </mxGeometry>
        </mxCell>
        <mxCell id="16" value="Redirects to Dashboard" style="curved=1;startArrow=none;endArrow=block;exitX=1;exitY=0.97;entryX=0.5;entryY=0;" edge="1" parent="1" source="6" target="9">
          <mxGeometry relative="1" as="geometry">
            <Array as="points">
              <mxPoint x="461" y="238" />
            </Array>
          </mxGeometry>
        </mxCell>
        <mxCell id="17" value="Logs Activity" style="curved=1;startArrow=none;endArrow=block;exitX=0.5;exitY=1;entryX=0.03;entryY=-0.01;" edge="1" parent="1" source="8" target="10">
          <mxGeometry relative="1" as="geometry">
            <Array as="points">
              <mxPoint x="212" y="614" />
            </Array>
          </mxGeometry>
        </mxCell>
        <mxCell id="18" value="Displays User Data" style="curved=1;startArrow=none;endArrow=block;exitX=0.5;exitY=1;entryX=1;entryY=0.04;" edge="1" parent="1" source="9" target="10">
          <mxGeometry relative="1" as="geometry">
            <Array as="points">
              <mxPoint x="461" y="614" />
            </Array>
          </mxGeometry>
        </mxCell>
      </root>
    </mxGraphModel>
  </diagram>
</mxfile>
